<svg xmlns="http://www.w3.org/2000/svg" viewBox="0 0 820 612" font-family="-apple-system,Segoe UI,Roboto,Helvetica,Arial,sans-serif">
  <defs>
    <filter id="sh" x="-20%" y="-20%" width="140%" height="140%">
      <feDropShadow dx="0" dy="2" stdDeviation="3" flood-color="#0f172a" flood-opacity="0.12"/>
    </filter>
    <marker id="a" markerWidth="9" markerHeight="9" refX="7" refY="3" orient="auto"><path d="M0,0 L7,3 L0,6 Z" fill="#94a3b8"/></marker>
    <marker id="ag" markerWidth="9" markerHeight="9" refX="7" refY="3" orient="auto"><path d="M0,0 L7,3 L0,6 Z" fill="#10b981"/></marker>
    <marker id="ac" markerWidth="9" markerHeight="9" refX="7" refY="3" orient="auto"><path d="M0,0 L7,3 L0,6 Z" fill="#0891b2"/></marker>
  </defs>

  <rect x="0" y="0" width="820" height="612" fill="#ffffff"/>

  <!-- ===== Section 1 · indigo ===== -->
  <rect x="14" y="16" width="792" height="144" rx="14" fill="#eef2ff" stroke="#c7d2fe"/>
  <circle cx="46" cy="48" r="13" fill="#6366f1"/>
  <text x="46" y="53" text-anchor="middle" font-size="14" font-weight="700" fill="#ffffff">1</text>
  <text x="68" y="45" font-size="14.5" font-weight="700" fill="#3730a3">Shard = a chain of Segments</text>
  <text x="68" y="63" font-size="11.5" fill="#818cf8">from a Kafka topic-partition · append-only</text>

  <g filter="url(#sh)">
    <rect x="42" y="84" width="150" height="66" rx="10" fill="#ffffff" stroke="#a5b4fc"/>
    <rect x="212" y="84" width="150" height="66" rx="10" fill="#ffffff" stroke="#a5b4fc"/>
    <rect x="382" y="84" width="176" height="66" rx="10" fill="#6366f1"/>
    <rect x="630" y="84" width="150" height="66" rx="10" fill="#ffffff" stroke="#a5b4fc" stroke-dasharray="5 4"/>
  </g>
  <text x="117" y="114" text-anchor="middle" font-size="13.5" fill="#312e81">Segment 0</text>
  <text x="117" y="133" text-anchor="middle" font-size="11" fill="#94a3b8">sealed</text>
  <text x="287" y="114" text-anchor="middle" font-size="13.5" fill="#312e81">Segment 1</text>
  <text x="287" y="133" text-anchor="middle" font-size="11" fill="#94a3b8">sealed</text>
  <text x="470" y="114" text-anchor="middle" font-size="13.5" font-weight="700" fill="#ffffff">Segment N</text>
  <text x="470" y="133" text-anchor="middle" font-size="11" fill="#e0e7ff">active · appending</text>
  <text x="705" y="121" text-anchor="middle" font-size="13" fill="#a5b4fc">Segment N+1</text>

  <line x1="192" y1="117" x2="209" y2="117" stroke="#6366f1" stroke-width="1.5" marker-end="url(#a)"/>
  <line x1="362" y1="117" x2="379" y2="117" stroke="#6366f1" stroke-width="1.5" marker-end="url(#a)"/>
  <line x1="558" y1="117" x2="627" y2="117" stroke="#a5b4fc" stroke-width="1.5" stroke-dasharray="5 4" marker-end="url(#a)"/>
  <text x="593" y="111" text-anchor="middle" font-size="10" fill="#6366f1">full → seal + scroll</text>

  <line x1="470" y1="160" x2="470" y2="176" stroke="#c7d2fe" stroke-width="1.4" stroke-dasharray="4 4" marker-end="url(#a)"/>

  <!-- ===== Section 2 · cyan ===== -->
  <rect x="14" y="178" width="792" height="186" rx="14" fill="#ecfeff" stroke="#a5f3fc"/>
  <circle cx="46" cy="210" r="13" fill="#06b6d4"/>
  <text x="46" y="215" text-anchor="middle" font-size="14" font-weight="700" fill="#ffffff">2</text>
  <text x="68" y="207" font-size="14.5" font-weight="700" fill="#155e75">Inside a Segment</text>
  <text x="68" y="225" font-size="11.5" fill="#0891b2">seek by offset via index, no full scan</text>

  <g filter="url(#sh)"><rect x="42" y="240" width="736" height="108" rx="12" fill="#ffffff" stroke="#a5f3fc"/></g>

  <rect x="60" y="258" width="176" height="72" rx="8" fill="#ecfeff" stroke="#67e8f9"/>
  <text x="148" y="279" text-anchor="middle" font-size="12.5" font-weight="700" fill="#155e75">offset index</text>
  <text x="148" y="300" text-anchor="middle" font-size="11" fill="#0e7490">offset 3 → pos</text>
  <text x="148" y="318" text-anchor="middle" font-size="11" fill="#0e7490">offset 4 → pos</text>

  <text x="300" y="256" font-size="11" fill="#0891b2">log file (append) →</text>
  <g font-size="12" text-anchor="middle">
    <rect x="300" y="268" width="52" height="46" rx="6" fill="#cffafe" stroke="#67e8f9"/><text x="326" y="296" fill="#0e7490">0</text>
    <rect x="360" y="268" width="52" height="46" rx="6" fill="#cffafe" stroke="#67e8f9"/><text x="386" y="296" fill="#0e7490">1</text>
    <rect x="420" y="268" width="52" height="46" rx="6" fill="#cffafe" stroke="#67e8f9"/><text x="446" y="296" fill="#0e7490">2</text>
    <rect x="480" y="268" width="52" height="46" rx="6" fill="#cffafe" stroke="#67e8f9"/><text x="506" y="296" fill="#0e7490">3</text>
    <rect x="540" y="268" width="52" height="46" rx="6" fill="#f1f5f9" stroke="#cbd5e1"/><text x="566" y="296" fill="#94a3b8">4</text>
    <rect x="600" y="268" width="52" height="46" rx="6" fill="#f1f5f9" stroke="#cbd5e1"/><text x="626" y="296" fill="#94a3b8">5</text>
    <rect x="660" y="268" width="52" height="46" rx="6" fill="#f1f5f9" stroke="#cbd5e1"/><text x="686" y="296" fill="#94a3b8">6</text>
  </g>
  <line x1="536" y1="260" x2="536" y2="322" stroke="#f59e0b" stroke-width="1.6" stroke-dasharray="3 3"/>
  <text x="536" y="332" text-anchor="middle" font-size="10" fill="#d97706">HW</text>
  <path d="M236 292 C 268 292, 268 291, 296 291" fill="none" stroke="#0891b2" stroke-width="1.4" marker-end="url(#ac)"/>

  <line x1="410" y1="364" x2="410" y2="380" stroke="#a5f3fc" stroke-width="1.4" stroke-dasharray="4 4" marker-end="url(#a)"/>

  <!-- ===== Section 3 · emerald ===== -->
  <rect x="14" y="382" width="792" height="214" rx="14" fill="#ecfdf5" stroke="#a7f3d0"/>
  <circle cx="46" cy="414" r="13" fill="#10b981"/>
  <text x="46" y="419" text-anchor="middle" font-size="14" font-weight="700" fill="#ffffff">3</text>
  <text x="68" y="411" font-size="14.5" font-weight="700" fill="#065f46">Replicas of the active Segment (ISR)</text>
  <text x="68" y="429" font-size="11.5" fill="#059669">acks=all rides this · auto failover, no data loss</text>

  <g filter="url(#sh)">
    <rect x="92" y="452" width="168" height="92" rx="10" fill="#10b981"/>
    <rect x="560" y="450" width="176" height="58" rx="10" fill="#ffffff" stroke="#6ee7b7"/>
    <rect x="560" y="524" width="176" height="58" rx="10" fill="#ffffff" stroke="#6ee7b7"/>
  </g>
  <text x="176" y="492" text-anchor="middle" font-size="15" font-weight="700" fill="#ffffff">Node1</text>
  <text x="176" y="514" text-anchor="middle" font-size="12.5" fill="#d1fae5">Leader</text>
  <text x="648" y="474" text-anchor="middle" font-size="13" fill="#065f46">Node2</text>
  <text x="648" y="493" text-anchor="middle" font-size="11" fill="#10b981">Follower</text>
  <text x="648" y="548" text-anchor="middle" font-size="13" fill="#065f46">Node3</text>
  <text x="648" y="567" text-anchor="middle" font-size="11" fill="#10b981">Follower</text>

  <path d="M260 484 C 400 470, 430 476, 557 478" fill="none" stroke="#10b981" stroke-width="1.6" marker-end="url(#ag)"/>
  <path d="M260 512 C 400 526, 430 550, 557 553" fill="none" stroke="#10b981" stroke-width="1.6" marker-end="url(#ag)"/>
  <text x="410" y="508" text-anchor="middle" font-size="10.5" fill="#059669">pull via ReplicaLog · advance HW · leader_epoch fencing</text>
</svg>
